<svg xmlns="http://www.w3.org/2000/svg" version="1.1" xmlns:xlink="http://www.w3.org/1999/xlink" xmlns:svgjs="http://svgjs.com/svgjs" width="1440" height="560" preserveAspectRatio="none" viewBox="0 0 1440 560"><g mask="url(&quot;#SvgjsMask1652&quot;)" fill="none"><rect width="1440" height="560" x="0" y="0" fill="url(#SvgjsLinearGradient1653)"></rect><path d="M1440 0L738.82 0L1440 226.12z" fill="rgba(255, 255, 255, .1)"></path><path d="M738.82 0L1440 226.12L1440 275.21000000000004L464.11000000000007 0z" fill="rgba(255, 255, 255, .075)"></path><path d="M464.1100000000001 0L1440 275.21000000000004L1440 395.30000000000007L359.6800000000001 0z" fill="rgba(255, 255, 255, .05)"></path><path d="M359.68000000000006 0L1440 395.30000000000007L1440 418.6700000000001L269.49000000000007 0z" fill="rgba(255, 255, 255, .025)"></path><path d="M0 560L543.8 560L0 469.55z" fill="rgba(0, 0, 0, .1)"></path><path d="M0 469.55L543.8 560L869.5799999999999 560L0 317.95000000000005z" fill="rgba(0, 0, 0, .075)"></path><path d="M0 317.95L869.5799999999999 560L931.55 560L0 215.08999999999997z" fill="rgba(0, 0, 0, .05)"></path><path d="M0 215.08999999999997L931.55 560L1168.06 560L0 81.07999999999998z" fill="rgba(0, 0, 0, .025)"></path></g><defs><mask id="SvgjsMask1652"><rect width="1440" height="560" fill="#ffffff"></rect></mask><linearGradient x1="50%" y1="100%" x2="50%" y2="0%" gradientUnits="userSpaceOnUse" id="SvgjsLinearGradient1653"><stop stop-color="rgba(30, 30, 30, 1)" offset="0"></stop><stop stop-color="rgba(65, 65, 65, 1)" offset="0"></stop><stop stop-color="rgba(113, 113, 113, 1)" offset="1"></stop></linearGradient></defs></svg>