<?xml version="1.0" encoding="UTF-8" standalone="no"?>
<svg
   width="24"
   height="24"
   viewBox="0 0 24 24"
   version="1.1"
   id="svg1249"
   sodipodi:docname="downArrow.svg"
   inkscape:version="1.1.2 (08b2f3d93c, 2022-04-05)"
   xmlns:inkscape="http://www.inkscape.org/namespaces/inkscape"
   xmlns:sodipodi="http://sodipodi.sourceforge.net/DTD/sodipodi-0.dtd"
   xmlns:xlink="http://www.w3.org/1999/xlink"
   xmlns="http://www.w3.org/2000/svg"
   xmlns:svg="http://www.w3.org/2000/svg">
  <defs
     id="defs1253">
    <linearGradient
       id="linearGradient2300"
       inkscape:swatch="solid">
      <stop
         style="stop-color:#f9f9f9;stop-opacity:1;"
         offset="0"
         id="stop2298" />
    </linearGradient>
    <linearGradient
       inkscape:collect="always"
       xlink:href="#linearGradient2300"
       id="linearGradient2302"
       x1="3.369189"
       y1="9.3402013"
       x2="20.622095"
       y2="9.3402013"
       gradientUnits="userSpaceOnUse" />
  </defs>
  <sodipodi:namedview
     id="namedview1251"
     pagecolor="#ffffff"
     bordercolor="#111111"
     borderopacity="1"
     inkscape:pageshadow="0"
     inkscape:pageopacity="0"
     inkscape:pagecheckerboard="1"
     showgrid="false"
     inkscape:zoom="28.083333"
     inkscape:cx="12"
     inkscape:cy="12"
     inkscape:window-width="1920"
     inkscape:window-height="901"
     inkscape:window-x="0"
     inkscape:window-y="25"
     inkscape:window-maximized="1"
     inkscape:current-layer="svg1249" />
  <g
     id="g1247">
    <polygon
       points="12 17.586 4.707 10.293 3.293 11.707 12 20.414 20.707 11.707 19.293 10.293 12 17.586"
       id="polygon1243" />
    <polygon
       points="20.707 5.707 19.293 4.293 12 11.586 4.707 4.293 3.293 5.707 12 14.414 20.707 5.707"
       id="polygon1245" />
  </g>
  <path
     style="fill:#a0a0a0;stroke:none;stroke-width:0.0356083"
     d="M 7.6644897,10.050247 3.3290888,5.7147364 4.0237336,5.0207768 4.7183784,4.3268172 l 3.640854,3.6407242 3.6408546,3.6407246 3.64086,-3.6408614 3.640861,-3.6408607 0.694379,0.6943786 0.694378,0.6943784 -4.335337,4.3352281 -4.335337,4.335228 z"
     id="path1388" />
  <path
     style="fill:#a0a0a0;stroke:none;stroke-width:0.0356083"
     d="M 7.6644897,16.032443 3.3290888,11.696932 4.0148924,11.011805 4.700696,10.326678 8.3324785,13.958591 c 1.9974805,1.997553 3.6478065,3.631913 3.6673915,3.631913 0.01959,0 1.670151,-1.634484 3.667925,-3.632186 l 3.632316,-3.632186 0.685116,0.685793 0.685117,0.685793 -4.335226,4.335117 -4.335227,4.335118 z"
     id="path1427" />
  <path
     style="fill:#a0a0a0;stroke:none;stroke-width:0.0356083"
     d="M 7.6822893,10.032438 3.3646883,5.7147272 4.0415376,5.038581 4.718387,4.3624349 8.3414546,7.9853719 C 10.334141,9.9779872 11.980487,11.608309 12,11.608309 c 0.01951,0 1.665912,-1.6303752 3.658664,-3.6230554 l 3.623185,-3.6230547 0.676552,0.6765526 0.676553,0.6765526 -4.317532,4.3174219 -4.317532,4.317423 z"
     id="path1466" />
  <path
     style="fill:#e6e6e6;stroke:none;stroke-width:0.0356083"
     d="m 7.6824057,16.01475 -4.3174845,-4.317594 0.6658369,-0.665837 0.665837,-0.665837 3.6180999,3.606577 c 2.240205,2.23307 3.643693,3.606576 3.685305,3.606576 0.04161,0 1.445143,-1.373549 3.685421,-3.606692 l 3.618216,-3.606692 0.665545,0.666238 0.665545,0.666238 -4.317418,4.317308 -4.317419,4.31731 z"
     id="path1505" />
  <path
     style="fill:#a0a0a0;stroke:none;stroke-width:0.0356083"
     d="M 7.6822893,10.032438 3.3646883,5.7147272 4.0415376,5.038581 4.718387,4.3624349 8.3414546,7.9853719 C 10.334141,9.9779872 11.980487,11.608309 12,11.608309 c 0.01951,0 1.665912,-1.6303752 3.658664,-3.6230554 l 3.623185,-3.6230547 0.676552,0.6765526 0.676553,0.6765526 -4.317532,4.3174219 -4.317532,4.317423 z"
     id="path1581" />
  <path
     style="fill:#ececec;stroke:none;stroke-width:0.0356083"
     d="M 7.6822893,10.032438 3.3646883,5.7147272 4.040086,5.0400312 C 4.4115547,4.6689484 4.7232129,4.3726007 4.7326599,4.3814807 c 0.00945,0.00888 1.6412503,1.638549 3.6262296,3.6214867 1.9849795,1.9829376 3.6234815,3.6053416 3.6411165,3.6053416 0.01763,0 1.663452,-1.6301865 3.657371,-3.6226366 l 3.625309,-3.6226361 0.676134,0.6761339 0.676134,0.6761339 -4.317532,4.3174219 -4.317532,4.317423 z"
     id="path1620" />
  <path
     style="fill:#ececec;stroke:none;stroke-width:0.0356083"
     d="M 7.7000884,15.996825 3.4002873,11.696913 4.050292,11.04829 4.7002967,10.399666 6.9792285,12.669871 c 3.2535085,3.24105 4.9676485,4.920633 5.0218725,4.920633 0.05605,0 1.815982,-1.724715 4.984293,-4.884556 l 2.314771,-2.308582 0.649473,0.650185 0.649472,0.650185 -4.29961,4.2995 -4.29961,4.2995 z"
     id="path1733" />
  <path
     style="fill:#ececec;stroke:none;stroke-width:0.0356083"
     d="M 7.682437,10.032586 C 5.3274231,7.6775109 3.4005935,5.7319586 3.4005935,5.7091363 c 0,-0.05026 1.2826445,-1.293706 1.3344891,-1.293706 0.020113,0 1.5908401,1.555323 3.4905054,3.4562734 1.899666,1.9009503 3.531149,3.5217603 3.62552,3.6018003 l 0.171582,0.145527 3.629712,-3.6280384 3.629712,-3.6280384 0.658646,0.6579246 c 0.362256,0.3618585 0.658647,0.6741356 0.658647,0.6939492 0,0.046831 -8.552687,8.599712 -8.599518,8.599712 -0.01958,0 -1.962438,-1.926879 -4.317452,-4.281954 z"
     id="path1809" />
  <path
     style="fill:#f2f2f2;stroke:none;stroke-width:0.0356083"
     d="M 7.682437,10.032586 C 5.3274231,7.6775109 3.4005935,5.7323505 3.4005935,5.7100071 c 0,-0.052923 1.2752123,-1.2945768 1.3295658,-1.2945768 0.022825,0 1.499628,1.459179 3.2817835,3.24262 1.7821556,1.7834411 3.4133532,3.4043827 3.6248842,3.6020917 l 0.384602,0.359472 3.630425,-3.6282478 3.630425,-3.6282472 0.658564,0.6578422 c 0.36221,0.3618131 0.658564,0.6740532 0.658564,0.6938668 0,0.046831 -8.552687,8.599712 -8.599518,8.599712 -0.01958,0 -1.962438,-1.926879 -4.317452,-4.281954 z"
     id="path1885" />
  <path
     style="fill:#f2f2f2;stroke:#f9f9f9;stroke-width:0.0356083;stroke-opacity:1"
     d="M 7.7000834,15.99682 3.4002773,11.696903 4.0372085,11.060709 c 0.3503122,-0.349906 0.6543134,-0.630226 0.6755582,-0.622932 0.021245,0.0073 1.2128867,1.183656 2.6480931,2.614138 2.9702842,2.960505 4.5812192,4.538589 4.6330702,4.538589 0.07109,0 0.982009,-0.890396 4.653519,-4.54866 l 2.653384,-2.64381 0.649139,0.649851 0.649138,0.649851 -4.29961,4.2995 -4.29961,4.2995 z"
     id="path1961" />
  <path
     style="fill:#a0a0a0;stroke:url(#linearGradient2302);stroke-width:0.0356083;stroke-opacity:1"
     d="M 7.6950085,10.017695 3.3944407,5.716779 4.0579921,5.0608903 4.7215435,4.4050015 6.0105257,5.6832129 c 0.7089402,0.7030163 2.2985218,2.2820389 3.5324034,3.5089395 1.2338819,1.2269006 2.2968839,2.2750396 2.3622279,2.3291986 l 0.118807,0.09847 3.631708,-3.628902 3.631708,-3.6289022 0.654884,0.6755875 0.654885,0.6755876 -1.432106,1.4412681 c -1.663098,1.6737389 -3.934777,3.946007 -5.834191,5.835705 l -1.335276,1.328445 z"
     id="path2222" />
  <path
     style="fill:#f2f2f2;stroke:none;stroke-width:0.0356083"
     d="M 7.702476,9.9792285 3.4406712,5.7151335 4.0759142,5.1008902 C 4.4252978,4.7630564 4.7203991,4.4866469 4.7316949,4.4866469 c 0.011296,0 1.6272498,1.5959425 3.5910091,3.5465391 1.963759,1.9505964 3.607489,3.563994 3.652734,3.585328 0.07722,0.03641 0.304372,-0.182993 3.703264,-3.5768689 l 3.621001,-3.6156568 0.619017,0.6350504 0.619016,0.6350505 -0.643295,0.6682758 c -0.974574,1.0124206 -7.855315,7.878958 -7.895255,7.878958 -0.0192,0 -1.952718,-1.918842 -4.29671,-4.2640945 z"
     id="path2304" />
  <path
     style="fill:#f2f2f2;stroke:none;stroke-width:0.0356083"
     d="M 7.7178506,15.978978 3.4358114,11.696829 3.9612292,11.179816 C 4.2502089,10.895458 4.5383908,10.616483 4.6016334,10.55987 L 4.71662,10.456938 7.0586557,12.786332 c 3.5123663,3.493409 4.7149733,4.672792 4.8893443,4.794926 0.06267,0.0439 0.09251,0.02642 0.32754,-0.191926 0.422938,-0.392908 2.352573,-2.296445 4.764262,-4.699825 l 2.262355,-2.254559 0.630668,0.631399 0.630668,0.631399 -4.281802,4.281691 -4.281802,4.281691 z"
     id="path2534" />
  <path
     style="fill:#f2f2f2;stroke:none;stroke-width:0.0356083"
     d="M 7.7232969,9.9666377 3.4675941,5.7151335 4.0839454,5.1202212 C 4.4229386,4.7930194 4.7109265,4.5246218 4.7239184,4.523782 c 0.012992,-8.397e-4 1.4951877,1.4526275 3.2937684,3.2299272 3.9018142,3.8556468 3.9692182,3.9209098 3.9900392,3.8632798 0.0089,-0.0246 0.03045,-0.0359 0.04792,-0.0251 0.04659,0.0288 0.604131,-0.515629 4.094747,-3.9984393 l 3.153361,-3.1463101 0.600124,0.627413 0.600123,0.6274131 -0.263455,0.2736482 c -0.615279,0.6390854 -7.73089,7.7603441 -7.983985,7.9903211 L 11.979,14.218142 Z"
     id="path2647" />
</svg>
